<mxfile host="6c6ca0dc-2ef8-4b6e-9b16-75113a7b7a69" modified="2020-09-25T05:24:32.954Z" agent="5.0 (Windows NT 10.0; Win64; x64) AppleWebKit/537.36 (KHTML, like Gecko) Code/1.49.1 Chrome/83.0.4103.122 Electron/9.2.1 Safari/537.36" etag="i3h5H1AXRYRZlWWpvmu3" version="13.1.3">
    <diagram id="9bFxdgqrIrL1utsNyQop" name="Page-1">
        <mxGraphModel dx="809" dy="577" grid="1" gridSize="10" guides="1" tooltips="1" connect="1" arrows="1" fold="1" page="1" pageScale="1" pageWidth="827" pageHeight="1169" math="0" shadow="0">
            <root>
                <mxCell id="0"/>
                <mxCell id="1" parent="0"/>
                <mxCell id="wuDIyEx_EuqSF4eB-WpC-1" value="OsTask_10msCAN" style="shape=umlLifeline;perimeter=lifelinePerimeter;whiteSpace=wrap;html=1;container=1;collapsible=0;recursiveResize=0;outlineConnect=0;shadow=0;" parent="1" vertex="1">
                    <mxGeometry x="390" y="170" width="220" height="580" as="geometry"/>
                </mxCell>
                <mxCell id="wuDIyEx_EuqSF4eB-WpC-2" value="CanCcl_MainFunction();" style="rounded=1;whiteSpace=wrap;html=1;absoluteArcSize=1;arcSize=14;strokeWidth=2;" parent="wuDIyEx_EuqSF4eB-WpC-1" vertex="1">
                    <mxGeometry x="40" y="160" width="140" height="40" as="geometry"/>
                </mxCell>
                <mxCell id="wuDIyEx_EuqSF4eB-WpC-3" value="Dcm_MainFunction();" style="rounded=1;whiteSpace=wrap;html=1;absoluteArcSize=1;arcSize=14;strokeWidth=2;" parent="1" vertex="1">
                    <mxGeometry x="430" y="430" width="140" height="40" as="geometry"/>
                </mxCell>
                <mxCell id="wuDIyEx_EuqSF4eB-WpC-4" value="CanCcl_MainFunction" style="shape=umlLifeline;perimeter=lifelinePerimeter;whiteSpace=wrap;html=1;container=1;collapsible=0;recursiveResize=0;outlineConnect=0;shadow=0;" parent="1" vertex="1">
                    <mxGeometry x="650" y="170" width="220" height="580" as="geometry"/>
                </mxCell>
                <mxCell id="wuDIyEx_EuqSF4eB-WpC-5" value="CanNm_MainFunction();" style="rounded=1;whiteSpace=wrap;html=1;absoluteArcSize=1;arcSize=14;strokeWidth=2;" parent="wuDIyEx_EuqSF4eB-WpC-4" vertex="1">
                    <mxGeometry x="40" y="160" width="140" height="40" as="geometry"/>
                </mxCell>
                <mxCell id="wuDIyEx_EuqSF4eB-WpC-6" value="CanCcl_MainFunction" style="shape=umlLifeline;perimeter=lifelinePerimeter;whiteSpace=wrap;html=1;container=1;collapsible=0;recursiveResize=0;outlineConnect=0;shadow=0;" parent="1" vertex="1">
                    <mxGeometry x="900" y="170" width="220" height="580" as="geometry"/>
                </mxCell>
                <mxCell id="wuDIyEx_EuqSF4eB-WpC-7" value="CanNm_MainFunction();" style="rounded=1;whiteSpace=wrap;html=1;absoluteArcSize=1;arcSize=14;strokeWidth=2;" parent="wuDIyEx_EuqSF4eB-WpC-6" vertex="1">
                    <mxGeometry x="40" y="160" width="140" height="40" as="geometry"/>
                </mxCell>
                <mxCell id="wuDIyEx_EuqSF4eB-WpC-8" style="edgeStyle=orthogonalEdgeStyle;rounded=0;orthogonalLoop=1;jettySize=auto;html=1;exitX=1;exitY=0.5;exitDx=0;exitDy=0;curved=1;entryX=0;entryY=0.034;entryDx=0;entryDy=0;entryPerimeter=0;dashed=1;dashPattern=1 1;" parent="1" source="wuDIyEx_EuqSF4eB-WpC-2" target="wuDIyEx_EuqSF4eB-WpC-4" edge="1">
                    <mxGeometry relative="1" as="geometry">
                        <Array as="points">
                            <mxPoint x="620" y="350"/>
                            <mxPoint x="620" y="190"/>
                        </Array>
                    </mxGeometry>
                </mxCell>
                <mxCell id="wuDIyEx_EuqSF4eB-WpC-9" style="edgeStyle=orthogonalEdgeStyle;curved=1;rounded=0;orthogonalLoop=1;jettySize=auto;html=1;exitX=1;exitY=0.5;exitDx=0;exitDy=0;dashed=1;dashPattern=1 1;entryX=0;entryY=0.041;entryDx=0;entryDy=0;entryPerimeter=0;" parent="1" source="wuDIyEx_EuqSF4eB-WpC-5" target="wuDIyEx_EuqSF4eB-WpC-6" edge="1">
                    <mxGeometry relative="1" as="geometry">
                        <mxPoint x="890" y="190" as="targetPoint"/>
                    </mxGeometry>
                </mxCell>
                <mxCell id="wuDIyEx_EuqSF4eB-WpC-10" value="CanNm_MainFunction();" style="shape=umlLifeline;perimeter=lifelinePerimeter;whiteSpace=wrap;html=1;container=1;collapsible=0;recursiveResize=0;outlineConnect=0;shadow=0;" parent="1" vertex="1">
                    <mxGeometry x="1160" y="170" width="240" height="580" as="geometry"/>
                </mxCell>
                <mxCell id="wuDIyEx_EuqSF4eB-WpC-11" style="edgeStyle=none;rounded=0;orthogonalLoop=1;jettySize=auto;html=1;exitX=0.5;exitY=1;exitDx=0;exitDy=0;exitPerimeter=0;" parent="wuDIyEx_EuqSF4eB-WpC-10" source="wuDIyEx_EuqSF4eB-WpC-13" target="wuDIyEx_EuqSF4eB-WpC-10" edge="1">
                    <mxGeometry relative="1" as="geometry"/>
                </mxCell>
                <mxCell id="wuDIyEx_EuqSF4eB-WpC-12" style="edgeStyle=none;rounded=0;orthogonalLoop=1;jettySize=auto;html=1;exitX=0.5;exitY=1;exitDx=0;exitDy=0;exitPerimeter=0;" parent="wuDIyEx_EuqSF4eB-WpC-10" source="wuDIyEx_EuqSF4eB-WpC-13" target="wuDIyEx_EuqSF4eB-WpC-10" edge="1">
                    <mxGeometry relative="1" as="geometry"/>
                </mxCell>
                <mxCell id="wuDIyEx_EuqSF4eB-WpC-13" value="NmCtrlStatus[MMCAN_CHANNEL] != NM_STATUS_SUSPEND" style="strokeWidth=2;html=1;shape=mxgraph.flowchart.decision;whiteSpace=wrap;fillColor=#fa6800;strokeColor=#C73500;fontColor=#ffffff;" parent="wuDIyEx_EuqSF4eB-WpC-10" vertex="1">
                    <mxGeometry x="-15" y="130" width="270" height="90" as="geometry"/>
                </mxCell>
                <mxCell id="wuDIyEx_EuqSF4eB-WpC-14" style="edgeStyle=orthogonalEdgeStyle;curved=1;rounded=0;orthogonalLoop=1;jettySize=auto;html=1;exitX=1;exitY=0.5;exitDx=0;exitDy=0;dashed=1;dashPattern=1 1;entryX=0.789;entryY=0.7;entryDx=0;entryDy=0;entryPerimeter=0;" parent="1" target="wuDIyEx_EuqSF4eB-WpC-13" edge="1">
                    <mxGeometry relative="1" as="geometry">
                        <mxPoint x="1540" y="806.22" as="sourcePoint"/>
                        <mxPoint x="1620" y="650" as="targetPoint"/>
                    </mxGeometry>
                </mxCell>
                <mxCell id="wuDIyEx_EuqSF4eB-WpC-15" value="CanIf_Transmit NM" style="rounded=1;whiteSpace=wrap;html=1;absoluteArcSize=1;arcSize=14;strokeWidth=2;fillColor=#e3c800;strokeColor=#B09500;fontColor=#ffffff;" parent="1" vertex="1">
                    <mxGeometry x="1210" y="460" width="140" height="40" as="geometry"/>
                </mxCell>
                <mxCell id="wuDIyEx_EuqSF4eB-WpC-16" value="Y" style="edgeStyle=none;rounded=0;orthogonalLoop=1;jettySize=auto;html=1;" parent="1" source="wuDIyEx_EuqSF4eB-WpC-13" target="wuDIyEx_EuqSF4eB-WpC-15" edge="1">
                    <mxGeometry relative="1" as="geometry"/>
                </mxCell>
                <mxCell id="wuDIyEx_EuqSF4eB-WpC-17" value="Dcm_MainFunction" style="shape=umlLifeline;perimeter=lifelinePerimeter;whiteSpace=wrap;html=1;container=1;collapsible=0;recursiveResize=0;outlineConnect=0;shadow=0;" parent="1" vertex="1">
                    <mxGeometry x="1490" y="170" width="240" height="890" as="geometry"/>
                </mxCell>
                <mxCell id="wuDIyEx_EuqSF4eB-WpC-18" style="edgeStyle=none;rounded=0;orthogonalLoop=1;jettySize=auto;html=1;exitX=0.5;exitY=1;exitDx=0;exitDy=0;exitPerimeter=0;" parent="wuDIyEx_EuqSF4eB-WpC-17" source="wuDIyEx_EuqSF4eB-WpC-21" target="wuDIyEx_EuqSF4eB-WpC-17" edge="1">
                    <mxGeometry relative="1" as="geometry"/>
                </mxCell>
                <mxCell id="wuDIyEx_EuqSF4eB-WpC-19" style="edgeStyle=none;rounded=0;orthogonalLoop=1;jettySize=auto;html=1;exitX=0.5;exitY=1;exitDx=0;exitDy=0;exitPerimeter=0;" parent="wuDIyEx_EuqSF4eB-WpC-17" source="wuDIyEx_EuqSF4eB-WpC-21" target="wuDIyEx_EuqSF4eB-WpC-17" edge="1">
                    <mxGeometry relative="1" as="geometry"/>
                </mxCell>
                <mxCell id="wuDIyEx_EuqSF4eB-WpC-20" value="==DCM_STATE_RX_END" style="edgeStyle=none;rounded=0;orthogonalLoop=1;jettySize=auto;html=1;" parent="wuDIyEx_EuqSF4eB-WpC-17" source="wuDIyEx_EuqSF4eB-WpC-21" target="wuDIyEx_EuqSF4eB-WpC-22" edge="1">
                    <mxGeometry relative="1" as="geometry"/>
                </mxCell>
                <mxCell id="wuDIyEx_EuqSF4eB-WpC-21" value="Dcm_DslRequestResponse.StateDcm_DslRequestResponse.State" style="strokeWidth=2;html=1;shape=mxgraph.flowchart.decision;whiteSpace=wrap;fillColor=#d80073;strokeColor=#A50040;fontColor=#ffffff;" parent="wuDIyEx_EuqSF4eB-WpC-17" vertex="1">
                    <mxGeometry x="-15" y="130" width="270" height="90" as="geometry"/>
                </mxCell>
                <mxCell id="wuDIyEx_EuqSF4eB-WpC-22" value="Dcm_28ServiceProcess" style="rounded=1;whiteSpace=wrap;html=1;absoluteArcSize=1;arcSize=14;strokeWidth=2;" parent="wuDIyEx_EuqSF4eB-WpC-17" vertex="1">
                    <mxGeometry x="50" y="290" width="140" height="40" as="geometry"/>
                </mxCell>
                <mxCell id="wuDIyEx_EuqSF4eB-WpC-23" style="edgeStyle=orthogonalEdgeStyle;curved=1;rounded=0;orthogonalLoop=1;jettySize=auto;html=1;exitX=1;exitY=0.5;exitDx=0;exitDy=0;dashed=1;dashPattern=1 1;entryX=0.008;entryY=0.031;entryDx=0;entryDy=0;entryPerimeter=0;" parent="1" source="wuDIyEx_EuqSF4eB-WpC-3" target="wuDIyEx_EuqSF4eB-WpC-17" edge="1">
                    <mxGeometry relative="1" as="geometry">
                        <mxPoint x="850" y="370" as="sourcePoint"/>
                        <mxPoint x="1450" y="190" as="targetPoint"/>
                        <Array as="points">
                            <mxPoint x="570" y="560"/>
                            <mxPoint x="1440" y="560"/>
                            <mxPoint x="1440" y="188"/>
                        </Array>
                    </mxGeometry>
                </mxCell>
                <mxCell id="wuDIyEx_EuqSF4eB-WpC-24" value="" style="edgeStyle=orthogonalEdgeStyle;rounded=0;orthogonalLoop=1;jettySize=auto;html=1;" parent="1" source="wuDIyEx_EuqSF4eB-WpC-25" target="wuDIyEx_EuqSF4eB-WpC-33" edge="1">
                    <mxGeometry relative="1" as="geometry"/>
                </mxCell>
                <mxCell id="wuDIyEx_EuqSF4eB-WpC-25" value="Dcm_Transmit_Function();" style="rounded=1;whiteSpace=wrap;html=1;absoluteArcSize=1;arcSize=14;strokeWidth=2;" parent="1" vertex="1">
                    <mxGeometry x="1800" y="460" width="140" height="40" as="geometry"/>
                </mxCell>
                <mxCell id="wuDIyEx_EuqSF4eB-WpC-26" value="" style="edgeStyle=orthogonalEdgeStyle;rounded=0;orthogonalLoop=1;jettySize=auto;html=1;exitX=1;exitY=0.5;exitDx=0;exitDy=0;exitPerimeter=0;entryX=0.457;entryY=0.025;entryDx=0;entryDy=0;entryPerimeter=0;" parent="1" source="wuDIyEx_EuqSF4eB-WpC-21" target="wuDIyEx_EuqSF4eB-WpC-25" edge="1">
                    <mxGeometry relative="1" as="geometry"/>
                </mxCell>
                <mxCell id="wuDIyEx_EuqSF4eB-WpC-27" value="==DCM_STATE_ONTX" style="edgeLabel;html=1;align=center;verticalAlign=middle;resizable=0;points=[];" parent="wuDIyEx_EuqSF4eB-WpC-26" vertex="1" connectable="0">
                    <mxGeometry x="0.6766" y="1" relative="1" as="geometry">
                        <mxPoint as="offset"/>
                    </mxGeometry>
                </mxCell>
                <mxCell id="wuDIyEx_EuqSF4eB-WpC-28" value="Communication_action" style="rounded=1;whiteSpace=wrap;html=1;absoluteArcSize=1;arcSize=14;strokeWidth=2;" parent="1" vertex="1">
                    <mxGeometry x="1540" y="550" width="140" height="40" as="geometry"/>
                </mxCell>
                <mxCell id="wuDIyEx_EuqSF4eB-WpC-29" value="Ccl_Dcm_CommCtrl_Sf00" style="rounded=1;whiteSpace=wrap;html=1;absoluteArcSize=1;arcSize=14;strokeWidth=2;" parent="1" vertex="1">
                    <mxGeometry x="1540" y="630" width="140" height="40" as="geometry"/>
                </mxCell>
                <mxCell id="wuDIyEx_EuqSF4eB-WpC-30" value="CanNmSetNmMode" style="rounded=1;whiteSpace=wrap;html=1;absoluteArcSize=1;arcSize=14;strokeWidth=2;" parent="1" vertex="1">
                    <mxGeometry x="1540" y="720" width="140" height="40" as="geometry"/>
                </mxCell>
                <mxCell id="wuDIyEx_EuqSF4eB-WpC-31" value="NmCtrlStatus[CtrlId] = NM_STATUS_RESUME;" style="rounded=1;whiteSpace=wrap;html=1;absoluteArcSize=1;arcSize=14;strokeWidth=2;fillColor=#fa6800;strokeColor=#C73500;fontColor=#ffffff;" parent="1" vertex="1">
                    <mxGeometry x="1540" y="790" width="140" height="40" as="geometry"/>
                </mxCell>
                <mxCell id="wuDIyEx_EuqSF4eB-WpC-32" style="edgeStyle=orthogonalEdgeStyle;curved=1;rounded=0;orthogonalLoop=1;jettySize=auto;html=1;exitX=1;exitY=0.5;exitDx=0;exitDy=0;dashed=1;dashPattern=1 1;" parent="1" edge="1">
                    <mxGeometry relative="1" as="geometry">
                        <mxPoint x="1080" y="346.22" as="sourcePoint"/>
                        <mxPoint x="1150" y="190" as="targetPoint"/>
                        <Array as="points">
                            <mxPoint x="1130" y="346"/>
                            <mxPoint x="1130" y="190"/>
                        </Array>
                    </mxGeometry>
                </mxCell>
                <mxCell id="wuDIyEx_EuqSF4eB-WpC-33" value="CanTp_Transmit TP" style="rounded=1;whiteSpace=wrap;html=1;absoluteArcSize=1;arcSize=14;strokeWidth=2;fillColor=#e51400;strokeColor=#B20000;fontColor=#ffffff;" parent="1" vertex="1">
                    <mxGeometry x="1800" y="550" width="140" height="40" as="geometry"/>
                </mxCell>
                <mxCell id="wuDIyEx_EuqSF4eB-WpC-34" style="edgeStyle=orthogonalEdgeStyle;curved=1;rounded=0;orthogonalLoop=1;jettySize=auto;html=1;exitX=1;exitY=0.5;exitDx=0;exitDy=0;dashed=1;dashPattern=1 1;" parent="1" source="wuDIyEx_EuqSF4eB-WpC-28" edge="1">
                    <mxGeometry relative="1" as="geometry">
                        <mxPoint x="1550" y="816.22" as="sourcePoint"/>
                        <mxPoint x="1810" y="420" as="targetPoint"/>
                        <Array as="points">
                            <mxPoint x="1760" y="570"/>
                            <mxPoint x="1760" y="420"/>
                        </Array>
                    </mxGeometry>
                </mxCell>
            </root>
        </mxGraphModel>
    </diagram>
</mxfile>